<svg xmlns="http://www.w3.org/2000/svg" fill="#fda820" xlink="http://www.w3.org/1999/xlink" version="1.1" space="preserve" class="u-svg-content" viewBox="0 0 512 512" id="svg-4efa"><g><path d="m197 60h205c8.271 0 15 6.729 15 15v30c0 8.284 6.716 15 15 15s15-6.716 15-15v-30c0-24.813-20.187-45-45-45h-205c-8.271 0-15-6.729-15-15 0-8.284-6.716-15-15-15s-15 6.716-15 15c0 24.813 20.187 45 45 45z"></path><path d="m137 120h155c8.284 0 15-6.716 15-15s-6.716-15-15-15h-155c-8.271 0-15-6.729-15-15 0-8.284-6.716-15-15-15s-15 6.716-15 15c0 24.813 20.187 45 45 45z"></path><path d="m167 197h-152c-8.284 0-15 6.716-15 15v285c0 8.284 6.716 15 15 15h31v-95c0-8.284 6.716-15 15-15h60c8.284 0 15 6.716 15 15v95h46v-300c0-8.284-6.716-15-15-15zm-91 160c0 8.284-6.716 15-15 15s-15-6.716-15-15v-20c0-8.284 6.716-15 15-15s15 6.716 15 15zm0-80c0 8.284-6.716 15-15 15s-15-6.716-15-15v-20c0-8.284 6.716-15 15-15s15 6.716 15 15zm60 80c0 8.284-6.716 15-15 15s-15-6.716-15-15v-20c0-8.284 6.716-15 15-15s15 6.716 15 15zm0-80c0 8.284-6.716 15-15 15s-15-6.716-15-15v-20c0-8.284 6.716-15 15-15s15 6.716 15 15z"></path><path d="m76 432h30v80h-30z"></path><path d="m309.5 142h-35c-7.565 0-13.946 5.633-14.884 13.14l-16.483 131.86h97.734l-16.483-131.86c-.938-7.507-7.319-13.14-14.884-13.14z"></path><path d="m399.616 155.14-16.483 131.86h97.734l-16.483-131.86c-.938-7.507-7.319-13.14-14.884-13.14h-35c-7.565 0-13.946 5.633-14.884 13.14z"></path><path d="m497 317h-285v195h65v-75c0-8.284 6.716-15 15-15h140c8.284 0 15 6.716 15 15v75h50c8.284 0 15-6.716 15-15v-165c0-8.284-6.716-15-15-15zm-205 75h-20c-8.284 0-15-6.716-15-15s6.716-15 15-15h20c8.284 0 15 6.716 15 15s-6.716 15-15 15zm80 0h-20c-8.284 0-15-6.716-15-15s6.716-15 15-15h20c8.284 0 15 6.716 15 15s-6.716 15-15 15zm80 0h-20c-8.284 0-15-6.716-15-15s6.716-15 15-15h20c8.284 0 15 6.716 15 15s-6.716 15-15 15z"></path><path d="m307 452h110v60h-110z"></path>
</g></svg>
