<svg xmlns="http://www.w3.org/2000/svg" fill="#fda820" xlink="http://www.w3.org/1999/xlink" version="1.1" space="preserve" class="u-svg-content" viewBox="0 0 512 512" x="0px" y="0px" id="svg-9072" style="enable-background:new 0 0 512 512;"><g><g><path d="M506.662,206.473l-241-202.947c-5.584-4.701-13.74-4.701-19.324,0l-241,202.947c-6.337,5.336-7.147,14.799-1.812,21.136    c5.335,6.337,14.798,7.147,21.136,1.812L51,207.241V497c0,8.284,6.716,15,15,15h380c8.284,0,15-6.716,15-15V207.241l26.338,22.179    c6.338,5.337,15.802,4.523,21.136-1.812C513.809,221.272,512.999,211.809,506.662,206.473z M271,461.137V415.96l37.664-44.838    c5.328-6.343,4.506-15.805-1.838-21.133c-6.343-5.33-15.804-4.507-21.133,1.838L271,369.319v-8.917l37.664-44.839    c5.329-6.343,4.506-15.805-1.838-21.133c-6.343-5.33-15.806-4.507-21.133,1.838L271,313.76v-28.403c0-8.284-6.716-15-15-15    s-15,6.716-15,15v28.403l-14.693-17.492c-5.328-6.344-14.791-7.166-21.133-1.838c-6.344,5.328-7.167,14.79-1.838,21.133    L241,360.402v8.917l-14.693-17.492c-5.328-6.343-14.791-7.166-21.133-1.838c-6.344,5.328-7.166,14.79-1.838,21.133L241,415.96    v45.177c-53.122-7.321-94.167-52.939-94.167-107.957c0-90.443,93.331-212.077,97.305-217.211c5.997-7.749,17.722-7.757,23.725,0    c3.974,5.134,97.305,126.768,97.305,217.211C365.167,408.198,324.122,453.816,271,461.137z"></path>
</g>
</g></svg>
