<svg xmlns="http://www.w3.org/2000/svg" fill="#ffffff" xlink="http://www.w3.org/1999/xlink" version="1.1" space="preserve" class="u-svg-content" viewBox="0 0 512 512" x="0px" y="0px" id="svg-2ef3" style="enable-background:new 0 0 512 512;"><g><g><path d="M471,256.101V113c0-33.084-26.916-60-60-60H100c-33.084,0-60,26.916-60,60v143.44C16.722,264.697,0,286.927,0,313v110h40    v36h40v-36h352v36h40v-36h40V313C512,286.556,494.797,264.069,471,256.101z M80,113c0-11.028,8.972-20,20-20h311    c11.028,0,20,8.972,20,20v140h-21v-20c0-33.084-26.916-60-60-60h-54c-15.355,0-29.376,5.805-40,15.327    C245.376,178.805,231.355,173,216,173h-56c-33.084,0-60,26.916-60,60v20H80V113z M370,233v20h-94v-20c0-11.028,8.972-20,20-20h54    C361.028,213,370,221.972,370,233z M236,233v20h-96v-20c0-11.028,8.972-20,20-20h56C227.028,213,236,221.972,236,233z M472,383H40    v-70c0-11.028,8.972-20,20-20h392c11.028,0,20,8.972,20,20V383z"></path>
</g>
</g></svg>
