<svg xmlns="http://www.w3.org/2000/svg" fill="#ffffff" xlink="http://www.w3.org/1999/xlink" version="1.1" space="preserve" class="u-svg-content" viewBox="0 0 512 512.001" id="svg-9257"><path d="m511.933594 171.367188v340.632812h-39.996094v-319.277344l-215.972656-144.59375-215.96875 144.59375v319.277344h-39.996094v-340.632812l255.964844-171.367188zm-79.992188 190.652343v109.984375c0 22.054688-17.941406 39.996094-39.992187 39.996094-22.054688 0-39.996094-17.941406-39.996094-39.996094h-191.972656c0 22.054688-17.941407 39.996094-39.996094 39.996094s-39.996094-17.941406-39.996094-39.996094v-109.984375c0-24.40625 14.660157-45.441406 35.628907-54.800781l22.34375-69.15625c6.496093-18.625 24.117187-31.140625 43.84375-31.140625h148.152343c19.726563 0 37.34375 12.515625 43.84375 31.140625l.144531.4375 22.1875 68.636719c21.066407 9.316406 35.808594 30.40625 35.808594 54.882812zm-256.164062-110.929687-16.453125 50.9375h193.125l-16.464844-50.933594c-.9375-2.503906-3.34375-4.175781-6.027344-4.175781h-148.152343c-2.683594 0-5.085938 1.671875-6.027344 4.171875zm216.171875 110.929687c0-11.027343-8.972657-19.996093-20-19.996093h-231.96875c-11.023438 0-19.996094 8.96875-19.996094 19.996093v49.992188c0 11.027343 8.972656 20 19.996094 20h231.96875c11.027343 0 20-8.972657 20-20zm-180.976563 44.996094h90.988282v-39.996094h-90.988282zm135.980469-39.996094c-11.042969 0-19.996094 8.953125-19.996094 19.996094 0 11.046875 8.953125 20 19.996094 20 11.046875 0 20-8.953125 20-20 0-11.042969-8.953125-19.996094-20-19.996094zm-180.976563 0c-11.042968 0-19.996093 8.953125-19.996093 19.996094 0 11.046875 8.953125 20 19.996093 20 11.046876 0 20-8.953125 20-20 0-11.042969-8.953124-19.996094-20-19.996094zm0 0"></path></svg>
