<svg xmlns="http://www.w3.org/2000/svg" fill="#ffffff" xlink="http://www.w3.org/1999/xlink" version="1.1" space="preserve" class="u-svg-content" viewBox="0 0 512 512" id="svg-55fe"><path d="m497 482v-39.503906c0-11.105469-9.035156-20.140625-20.144531-20.140625h-15.351563v-29.285157c0-10.035156-7.269531-18.40625-16.828125-20.140624v-149.78125h37.324219c8.285156 0 15-6.71875 15-15 0-8.285157-6.714844-15-15-15h-5v-34.574219c0-5.199219-2.035156-10.191407-5.632812-13.90625l-29.90625-35.714844-.808594-.722656c-3.679688-3.285157-8.421875-5.097657-13.355469-5.097657h-10.953125v-24.882812c0-8.292969-4.910156-15.8125-12.507812-19.164062l-140.839844-57.671876c-4.460938-1.882812-9.527344-1.886718-13.992188-.003906l-140.472656 57.523438-.367188.152344c-7.597656 3.351562-12.507812 10.871093-12.507812 19.164062v24.882812h-11.375c-4.976562 0-9.746094 1.835938-13.4375 5.167969l-.8125.734375-29.480469 35.703125c-3.542969 3.707031-5.550781 8.664063-5.550781 13.824219v34.582031h-5c-8.285156 0-15 6.71875-15 15 0 8.285157 6.714844 15 15 15h36.785156v149.734375c-9.695312 1.617188-17.113281 10.054688-17.113281 20.1875v29.285156h-14.527344c-11.109375.003907-20.144531 9.039063-20.144531 20.144532v39.503906c-8.285156 0-15 6.714844-15 15s6.714844 15 15 15h482c8.285156 0 15-6.714844 15-15s-6.714844-15-15-15zm-129.503906-59.644531v-19.753907h64.007812v19.753907zm-49.492188 0v-29.285157c0-10.035156-7.269531-18.410156-16.828125-20.140624v-149.78125h53.4375v149.730468c-9.699219 1.617188-17.113281 10.054688-17.113281 20.191406v29.285157zm-94.007812 0v-19.753907h64.007812v19.753907zm-50.316406 0v-29.285157c0-10.035156-7.269532-18.40625-16.828126-20.140624v-149.78125h54.257813v149.730468c-9.695313 1.617188-17.113281 10.054688-17.113281 20.191406v29.285157zm97.496093-49.753907h-30.066406v-149.453124h30.066406zm143.5 0h-30.0625v-149.453124h30.0625zm-289.019531-288.265624 130.34375-53.371094 130.34375 53.371094v18.796874h-260.6875zm-60.65625 108.808593v-30.898437l24.035156-29.113282h333.546875l24.417969 29.164063v30.847656zm61.851562 30.003907v149.453124h-30.066406v-149.453124zm-47.179687 179.453124h64.007813v19.753907h-64.007813zm-34.671875 79.398438v-29.644531h422v29.644531zm0 0"></path></svg>
